<svg width="188" height="191" viewBox="0 0 188 191" fill="none" xmlns="http://www.w3.org/2000/svg">
<path d="M89.8962 19.3185C81.7961 18.9583 71.397 29.507 69.184 55.7012C69.0497 57.2729 71.0962 58.9155 73.0031 60.3071C74.448 61.3658 75.1839 61.7805 77.499 63.3794C79.8731 65.022 81.1838 65.8624 82.908 66.7356C84.4496 67.516 85.8784 68.1817 87.2642 68.6128C89.1926 69.2186 90.847 69.4642 93.4091 69.6442C94.795 69.7425 95.9659 69.9989 97.7869 70.0863C100.134 70.2009 101.746 69.8516 102.363 69.6879C103.481 69.3932 106.327 69.8734 107.536 68.471C108.052 67.8707 108.224 67.7943 108.546 66.4518C109.4 62.8883 108.562 58.1024 108.492 57.7204C107.332 51.4992 105.785 46.1567 105.785 46.1567C100.252 30.7894 95.9498 19.5859 89.8962 19.3185Z" fill="#D9D9D9"/>
<path d="M94.4942 18.2263C93.7207 17.1076 98.5012 15.4705 110.093 17.6588C111.898 18.33 112.87 18.401 113.874 18.712C116.082 19.3887 117.307 19.6397 119.246 20.2455C120.089 20.5074 119.971 20.7202 122.904 21.6207C125.788 22.4993 126.519 23.0723 128.313 23.8417C129.876 24.513 130.585 24.8186 131.417 25.2988C133.056 26.2429 133.958 26.6849 134.205 26.9141C135.21 27.8636 136.048 28.6386 136.155 28.8132C137.165 30.4503 137.96 31.2252 138.024 31.5199C138.368 33.1134 149.084 35.198 160.224 38.2322C163.184 39.6838 163.845 41.4956 163.925 42.1941C163.957 42.4615 164.274 43.3729 164.205 44.055C164.054 45.4357 164.081 46.8982 163.968 47.935C163.737 50.0906 163.195 52.6391 162.813 53.9597C162.41 55.3458 161.492 57.6869 159.827 60.4264C159.021 61.758 157.898 62.6966 156.964 63.8644C155.471 65.7253 154.364 66.2274 153.344 67.2206C152.436 67.9464 150.862 69.1906 149.245 70.2929C147.102 71.7555 146.022 72.3557 144.631 72.9178C142.015 73.982 144.191 73.1579 141.371 74.2494C140.543 74.5713 138.911 75.0516 137.75 75.379C137.084 75.5645 135.494 76.1375 134.248 76.3886C132.228 76.7924 132.132 76.5632 131.063 76.8306C130.096 77.0707 129.801 77.0543 129.032 77.3163C126.836 78.0639 126.492 78.6587 126.169 78.9753C125.665 79.4664 125.256 79.7556 125.095 80.1049C124.789 80.476 124.655 80.4814 124.381 81.562C124.107 82.6206 124.134 83.7939 124.22 84.2687C123.876 89.6603 123.887 94.9265 123.543 100.318C122.189 100.427 118.515 100.684 116.141 99.7124C115.378 99.4013 114.626 99.0903 113.831 98.4191C112.15 96.9947 111.876 94.7409 111.205 92.1106C110.42 89.0219 110.426 87.6739 109.373 85.5238C108.54 83.8157 107.853 83.592 107.423 83.2591C106.032 82.1841 104.614 82.5442 104.039 82.5715C102.25 82.6534 101.493 83.4065 100.704 83.8267C100.129 84.1323 98.9578 84.6289 97.2712 86.8608C95.5416 89.1474 95.0689 90.8118 94.2471 93.0056C93.6347 94.6482 93.2587 96.7273 92.7377 100.242C92.0663 104.744 93.2372 107.718 91.7816 109.623C90.8845 110.796 90.1326 110.567 88.0431 112.373C86.9043 113.355 86.3135 113.524 84.5839 115.647C82.2258 118.545 81.9357 118.801 81.0817 120.177C80.1847 121.617 79.1587 122.687 77.8212 125.47C76.9457 126.529 76.0003 128.783 75.157 131.167C74.0451 134.305 73.6315 137.427 73.2072 139.899C72.3477 144.887 72.4498 146.409 71.7354 146.971C71.0747 147.49 69.8662 146.164 65.569 142.567C63.4204 140.466 61.2343 138.283 59.0857 136.182C56.8995 133.274 54.622 131.015 53.3974 129.35C50.674 125.65 50.3464 125.639 47.231 121.061C44.3358 116.804 42.6921 115.745 42.9338 113.541C43.0466 112.488 43.2024 109.808 45.9203 107.276C49.7555 103.702 51.5281 102.25 53.8754 100.122C57.1627 97.1475 59.3328 93.6986 61.1161 91.3521C64.0811 87.4502 65.5529 83.2537 67.3631 76.7979C67.7068 75.57 68.0023 63.4169 69.2753 62.3255C70.5268 61.2505 73.9753 64.6339 83.5203 69.1579C86.4639 70.5549 87.9356 71.2534 89.488 71.5808C90.906 71.881 98.9202 74.7951 105.602 72.7323C112.37 70.6422 112.236 64.934 111.989 62.3637C111.704 59.4223 110.388 52.8792 109.781 50.298C107.649 41.2773 104.721 36.7752 103.013 33.2007C97.8674 22.4665 95.6866 19.9562 94.4942 18.2263Z" fill="#D9D9D9"/>
<path d="M117.683 32.3174C118.913 32.3229 120.54 33.709 120.632 35.4389C120.707 36.8796 119.117 38.3148 117.828 38.3093C116.474 38.3093 114.723 36.7868 114.734 35.4389C114.739 33.9163 116.173 32.3119 117.683 32.3174Z" fill="#131313"/>
<path d="M105.237 87.0252C105.522 87.0307 106.37 87.0525 106.907 87.6746C107.138 87.9366 107.224 88.2094 107.305 88.4823C107.531 89.2244 107.466 89.148 107.627 89.8084C107.745 90.294 107.907 91.4346 108.078 92.4441C108.078 92.4441 108.293 94.1086 109.035 96.0022C109.803 97.9668 111.199 100.854 114.186 103.964C114.841 103.871 115.851 103.991 117.011 104.084C118.424 104.199 119.203 104.499 120.83 104.974C124.51 106.043 124.601 105.678 126.481 106.431C127.926 107.004 128.839 107.604 130.381 108.614C133.566 110.698 135.156 111.741 136.187 113.705C136.526 114.349 136.891 115.561 137.621 117.989C138.411 120.619 138.212 120.461 138.577 121.302C139.158 122.644 139.684 123.108 142.235 126.235C144.019 128.418 143.675 128.085 144.701 129.307C145.807 130.622 147.687 132.68 149.395 134.399C148.654 136.391 148.031 137.547 147.365 138.764C146.044 141.182 145.507 141.558 144.658 142.846C144.405 143.234 143.288 144.674 142.987 144.909C142.525 145.46 141.129 146.568 139.926 147.081C139.093 147.436 138.244 147.687 136.74 147.823C134.372 148.042 134.312 147.965 133.082 148.265C132.261 148.467 132.486 148.522 130.176 149.395C128.549 150.012 128.323 150.235 126.954 150.808C124.574 151.807 124.896 151.409 123.092 152.14C120.922 153.024 120.443 153.078 118.714 153.957C117.763 154.443 116.759 155.048 116.297 155.37C116.324 157.39 116.34 158.803 116.367 160.828C113.649 160.778 111.35 160.642 109.604 160.506C107.396 160.331 105.903 160.211 103.873 159.856C101.783 159.496 100.274 159.087 98.6194 158.645C95.6866 157.853 93.4628 157.079 92.1736 156.626C90.4064 156.004 90.7502 156.069 88.0376 155.092C85.4969 154.175 84.8685 154.001 83.5042 153.395C82.0539 152.751 80.9903 152.162 80.1631 151.698C78.917 150.999 77.515 150.148 76.0271 149.111C75.8069 145.93 76.1507 143.381 76.5052 141.673C76.8973 139.779 77.1122 138.137 77.4774 136.865C78.1059 134.699 78.4604 133.274 79.5669 130.879C82.4406 124.652 82.5749 125.847 83.429 124.368C85.5131 120.761 88.0699 118.327 89.8747 116.608C90.2936 116.205 90.7233 115.817 94.9668 111.839C95.0849 111.73 95.3857 110.917 95.5039 110.807C95.187 108.384 95.7188 106.365 95.8423 104.805C95.9927 102.927 96.4385 100.521 97.0777 97.5084C97.5558 95.2437 98.2111 93.8685 98.7268 92.9408C99.2908 91.9257 99.8924 90.9871 100.703 89.9284C101.509 88.8752 102.395 88.2203 103.002 87.8274C103.62 87.4345 104.302 87.0034 105.237 87.0252Z" fill="#D9D9D9"/>
<path d="M126.288 118.873C127.518 118.879 129.145 120.265 129.237 121.995C129.312 123.435 127.722 124.87 126.433 124.865C125.079 124.865 123.328 123.342 123.339 121.995C123.344 120.477 124.778 118.868 126.288 118.873Z" fill="#131313"/>
<path d="M58.1926 94.4583L62.8222 87.934L66.3721 92.0838L65.4634 93.3644L63.1704 90.684L62.221 92.022L64.2879 94.4382L63.3769 95.722L61.3099 93.3058L59.4495 95.9276L58.1926 94.4583Z" fill="black"/>
<path d="M66.7792 102.621C66.2705 102.254 65.8907 101.828 65.6399 101.344C65.3924 100.859 65.2799 100.343 65.3024 99.7947C65.3282 99.2461 65.494 98.6917 65.7998 98.1317C66.0968 97.5878 66.4556 97.184 66.8762 96.9206C67.298 96.6548 67.7512 96.5392 68.2357 96.5737C68.7215 96.606 69.2092 96.799 69.6989 97.1528C70.0451 97.4029 70.3299 97.69 70.5533 98.014C70.7767 98.338 70.9305 98.6898 71.0147 99.0693C71.0989 99.4489 71.1073 99.8486 71.0399 100.268C70.9738 100.686 70.8228 101.111 70.5869 101.543L70.3585 101.961L66.1316 98.9069L66.6632 97.9333L69.4495 99.9465C69.5448 99.7667 69.5924 99.5796 69.5926 99.3853C69.5927 99.1909 69.5475 99.0069 69.457 98.8331C69.3698 98.6585 69.2407 98.5095 69.0697 98.3859C68.8966 98.2609 68.7184 98.1911 68.535 98.1765C68.3529 98.1596 68.1824 98.1942 68.0236 98.2803C67.866 98.364 67.7358 98.4947 67.633 98.6722L67.0919 99.663C66.9746 99.8778 66.9107 100.095 66.9002 100.313C66.8909 100.53 66.9337 100.734 67.0286 100.927C67.1235 101.12 67.2701 101.288 67.4685 101.432C67.6057 101.531 67.7415 101.6 67.8758 101.64C68.0102 101.679 68.1393 101.688 68.2632 101.666C68.3871 101.644 68.5009 101.589 68.6046 101.502L70.002 102.574C69.7544 102.876 69.4605 103.083 69.1202 103.194C68.7832 103.304 68.4146 103.314 68.0142 103.222C67.6151 103.128 67.2035 102.928 66.7792 102.621Z" fill="black"/>
<path d="M77.4036 101.301L76.8571 102.596L73.3756 101.111L73.9222 99.8151L77.4036 101.301ZM75.2102 98.8019L76.9671 99.5515L74.8098 104.666C74.7642 104.774 74.7441 104.869 74.7492 104.95C74.7578 105.03 74.7896 105.099 74.8445 105.156C74.9005 105.211 74.9751 105.259 75.0685 105.299C75.1356 105.327 75.2088 105.352 75.2881 105.371C75.3708 105.39 75.4334 105.402 75.4758 105.409L75.2057 106.793C75.1117 106.781 74.9805 106.76 74.8121 106.731C74.646 106.703 74.4555 106.648 74.2407 106.568C73.8206 106.411 73.4876 106.212 73.2415 105.972C72.9989 105.729 72.8519 105.451 72.8004 105.138C72.7514 104.825 72.8082 104.483 72.9709 104.111L75.2102 98.8019Z" fill="black"/>
<path d="M80.8039 108.482C80.1814 108.368 79.6855 108.146 79.3164 107.816C78.9498 107.486 78.7156 107.078 78.6137 106.592C78.5126 106.103 78.5521 105.566 78.7321 104.981C78.9129 104.394 79.1907 103.9 79.5653 103.501C79.9432 103.099 80.3921 102.814 80.912 102.646C81.4343 102.479 82.0042 102.451 82.6216 102.564C83.1673 102.664 83.613 102.846 83.9588 103.112C84.3071 103.378 84.5413 103.707 84.6613 104.1C84.7846 104.49 84.7802 104.922 84.6482 105.394L82.8921 105.074C82.9466 104.774 82.915 104.525 82.7973 104.327C82.6821 104.13 82.49 104.007 82.221 103.958C82.0032 103.918 81.794 103.943 81.5933 104.032C81.3933 104.119 81.2116 104.27 81.0481 104.485C80.8879 104.698 80.7558 104.973 80.6516 105.312C80.5474 105.65 80.5041 105.944 80.5217 106.195C80.5427 106.443 80.6168 106.642 80.744 106.791C80.8719 106.938 81.0448 107.032 81.2625 107.071C81.4367 107.103 81.6015 107.095 81.757 107.047C81.915 107 82.059 106.914 82.189 106.791C82.3197 106.665 82.4277 106.503 82.5128 106.306L84.269 106.626C84.1054 107.096 83.8566 107.487 83.5223 107.799C83.1907 108.112 82.7922 108.33 82.3269 108.453C81.8649 108.573 81.3572 108.583 80.8039 108.482Z" fill="black"/>
<path d="M89.2407 105.777L88.6346 109.145L86.7284 109.268L88.1454 101.395L89.9891 101.275L89.4398 104.328L89.5061 104.323C89.7067 103.951 89.9788 103.652 90.3223 103.427C90.6685 103.202 91.065 103.075 91.512 103.046C91.933 103.018 92.2828 103.087 92.5614 103.251C92.8405 103.413 93.0359 103.655 93.1474 103.977C93.2616 104.299 93.2772 104.683 93.1944 105.129L92.517 108.893L90.6109 109.016L91.2218 105.622C91.2834 105.293 91.2464 105.042 91.1107 104.869C90.975 104.695 90.7538 104.618 90.4472 104.638C90.2471 104.651 90.0625 104.706 89.8935 104.804C89.7276 104.898 89.5874 105.027 89.4731 105.192C89.3613 105.356 89.2838 105.551 89.2407 105.777Z" fill="black"/>
<path d="M73.0566 149.217L77.8134 142.785L82.0809 145.623L81.3585 146.599L78.2978 144.564L77.0064 146.31L79.7744 148.151L79.0521 149.128L76.2841 147.287L74.2634 150.019L73.0566 149.217Z" fill="black"/>
<path d="M84.8038 156.297C84.2567 156.047 83.839 155.718 83.5508 155.312C83.2661 154.904 83.1183 154.444 83.1073 153.932C83.0975 153.418 83.2303 152.879 83.5055 152.315C83.7763 151.761 84.1204 151.323 84.538 151.001C84.9592 150.678 85.4199 150.488 85.9201 150.431C86.4215 150.371 86.9327 150.46 87.4537 150.699C87.79 150.852 88.0811 151.051 88.327 151.295C88.5763 151.538 88.7616 151.823 88.8828 152.151C89.0064 152.479 89.0506 152.846 89.0153 153.25C88.9811 153.653 88.8487 154.09 88.6179 154.563L88.4277 154.953L83.9553 152.907L84.3733 152.051L87.6131 153.532C87.7296 153.288 87.7819 153.047 87.7702 152.81C87.7597 152.57 87.6877 152.353 87.5543 152.157C87.4233 151.963 87.2346 151.809 86.9883 151.697C86.7254 151.576 86.4637 151.534 86.2031 151.569C85.9436 151.602 85.7085 151.695 85.4978 151.848C85.2907 151.999 85.1271 152.195 85.007 152.435L84.6421 153.183C84.489 153.496 84.4157 153.792 84.4221 154.07C84.4296 154.345 84.5084 154.59 84.6586 154.805C84.8099 155.017 85.0253 155.187 85.3047 155.315C85.4918 155.401 85.6737 155.452 85.8504 155.47C86.0282 155.486 86.1979 155.467 86.3595 155.415C86.5211 155.363 86.6674 155.274 86.7985 155.148L87.9341 155.83C87.7053 156.109 87.4271 156.317 87.0998 156.454C86.7759 156.589 86.418 156.646 86.026 156.624C85.6351 156.6 85.2277 156.491 84.8038 156.297Z" fill="black"/>
<path d="M97.3555 154.477L97.0413 155.525L93.7367 154.536L94.0509 153.489L97.3555 154.477ZM95.2798 152.356L96.6346 152.761L95.0161 158.156C94.9615 158.338 94.9471 158.486 94.9728 158.6C95.0017 158.712 95.0571 158.799 95.139 158.862C95.2208 158.924 95.3179 158.972 95.4301 159.006C95.515 159.031 95.5942 159.048 95.6678 159.056C95.7439 159.066 95.8021 159.071 95.8425 159.072L95.7532 160.199C95.6734 160.202 95.5616 160.199 95.4179 160.189C95.2767 160.179 95.1093 160.148 94.9156 160.095C94.5733 160.004 94.283 159.861 94.0448 159.668C93.8072 159.472 93.6445 159.23 93.5567 158.943C93.4713 158.656 93.4838 158.334 93.594 157.976L95.2798 152.356Z" fill="black"/>
<path d="M103.642 162.085C103.05 161.994 102.558 161.786 102.167 161.46C101.779 161.134 101.5 160.724 101.331 160.229C101.164 159.732 101.119 159.183 101.197 158.581C101.276 157.977 101.46 157.461 101.752 157.034C102.044 156.605 102.418 156.294 102.873 156.1C103.332 155.905 103.85 155.851 104.43 155.94C104.911 156.014 105.325 156.168 105.673 156.404C106.023 156.637 106.288 156.931 106.468 157.288C106.648 157.642 106.726 158.036 106.701 158.47L105.365 158.265C105.348 157.97 105.25 157.711 105.072 157.489C104.896 157.264 104.64 157.126 104.302 157.074C104.017 157.03 103.756 157.069 103.519 157.191C103.283 157.31 103.086 157.504 102.928 157.772C102.773 158.04 102.669 158.375 102.617 158.775C102.565 159.181 102.579 159.538 102.66 159.848C102.741 160.156 102.878 160.405 103.071 160.595C103.267 160.783 103.511 160.9 103.801 160.944C104.007 160.976 104.196 160.965 104.369 160.913C104.544 160.858 104.696 160.764 104.826 160.631C104.956 160.499 105.056 160.328 105.125 160.12L106.461 160.325C106.373 160.741 106.201 161.095 105.945 161.388C105.69 161.678 105.366 161.886 104.974 162.013C104.583 162.138 104.139 162.162 103.642 162.085Z" fill="black"/>
<path d="M113.385 159.305L113.594 162.814L112.18 162.829L111.705 154.843L113.087 154.829L113.267 157.843L113.337 157.842C113.457 157.503 113.659 157.234 113.942 157.036C114.227 156.836 114.598 156.733 115.057 156.728C115.473 156.724 115.842 156.807 116.162 156.978C116.482 157.149 116.737 157.402 116.926 157.735C117.118 158.069 117.228 158.477 117.257 158.961L117.484 162.775L116.07 162.789L115.856 159.194C115.832 158.791 115.709 158.479 115.488 158.257C115.269 158.033 114.973 157.923 114.6 157.927C114.35 157.929 114.13 157.986 113.938 158.097C113.749 158.206 113.605 158.362 113.505 158.566C113.408 158.77 113.368 159.016 113.385 159.305Z" fill="black"/>
</svg>
