<svg width="19" height="16" viewBox="0 0 19 16" fill="none" xmlns="http://www.w3.org/2000/svg">
<path d="M9.75791 12.5279C10.2279 11.5391 10.7573 10.4897 11.346 9.37965C11.9106 8.24586 12.4872 7.12395 13.076 6.01392C13.6647 4.90389 14.2304 3.87809 14.7728 2.93654C14.9614 2.59861 15.1738 2.23644 15.4098 1.85002C15.6457 1.43961 15.8578 1.05343 16.0461 0.691505C16.2117 0.449812 16.5824 0.326043 17.1584 0.320198C17.5184 0.316545 17.867 0.37301 18.2042 0.489595C18.5414 0.606179 18.7111 0.772466 18.7133 0.988455C18.7138 1.03645 18.6786 1.12081 18.6078 1.24154C17.8739 2.23304 17.141 3.33253 16.4092 4.54002C15.6772 5.72351 14.993 6.89451 14.3567 8.05303C13.6965 9.21179 13.131 10.2496 12.6602 11.1664C12.1655 12.0835 11.8006 12.7832 11.5655 13.2656C11.4712 13.4346 11.413 13.6152 11.391 13.8074C11.3449 13.9999 11.2748 14.1806 11.1805 14.3496C11.0389 14.591 10.7769 14.7857 10.3944 14.9336C9.9876 15.0577 9.62822 15.1214 9.31624 15.1245C9.07625 15.127 8.8839 15.0929 8.73917 15.0224C8.54597 14.9043 8.39966 14.6778 8.30026 14.3428C8.17661 13.984 8.02921 13.6495 7.85805 13.3392C7.76011 13.1482 7.53985 12.7304 7.1973 12.0859C6.83049 11.4176 6.39048 10.63 5.87725 9.72316C5.33978 8.79257 4.76595 7.82634 4.15575 6.82448C3.5453 5.79862 2.93535 4.82076 2.32588 3.8909C1.69217 2.93728 1.0958 2.11529 0.536766 1.42493C0.463552 1.30567 0.42658 1.21004 0.425849 1.13804C0.423414 0.898053 0.613456 0.704115 0.995975 0.556226C1.35425 0.384581 1.72538 0.29681 2.10936 0.292913C2.56534 0.288286 2.85442 0.393358 2.9766 0.608129C3.44086 1.41946 3.89275 2.19491 4.33228 2.93449C4.91775 3.8646 5.54031 4.90233 6.19997 6.0477C6.83538 7.16931 7.4708 8.29092 8.10621 9.41253C8.71763 10.5344 9.2682 11.5728 9.75791 12.5279Z" fill="black"/>
</svg>
