<svg width="299" height="36" viewBox="0 0 299 36" fill="none" xmlns="http://www.w3.org/2000/svg">
<path d="M18.456 17.864C17.976 17.864 17.48 17.864 16.968 17.864C16.456 17.864 15.976 17.88 15.528 17.912L5.448 18.488V29.864C5.448 30.248 5.464 30.776 5.496 31.448C5.528 32.12 5.544 32.776 5.544 33.416C5.576 34.056 5.592 34.568 5.592 34.952C5.592 35.272 5.256 35.432 4.584 35.432C4.072 35.432 3.512 35.304 2.904 35.048C2.296 34.824 1.992 34.504 1.992 34.088C1.992 33.832 1.992 33.448 1.992 32.936C2.024 32.392 2.04 31.832 2.04 31.256C2.072 30.68 2.088 30.2 2.088 29.816V18.488C1.736 18.296 1.432 17.944 1.176 17.432C0.92 16.92 0.792 16.488 0.792 16.136C0.792 15.784 0.92 15.608 1.176 15.608H1.272C1.4 15.64 1.528 15.672 1.656 15.704C1.816 15.704 1.96 15.704 2.088 15.704V6.008C2.088 5.496 2.088 5.016 2.088 4.568C2.088 4.088 2.056 3.656 1.992 3.272C1.96 2.984 1.928 2.76 1.896 2.6C1.896 2.408 1.896 2.248 1.896 2.12C1.896 1.8 1.976 1.608 2.136 1.544C2.296 1.48 2.44 1.448 2.568 1.448C3.016 1.448 3.544 1.544 4.152 1.736C4.76 1.928 5.08 2.04 5.112 2.072L18.12 1.208C18.856 1.144 19.624 1.064 20.424 0.967998C21.256 0.871999 21.816 0.823999 22.104 0.823999C22.552 0.823999 22.936 1.112 23.256 1.688C23.576 2.232 23.736 2.744 23.736 3.224C23.736 3.768 23.528 4.04 23.112 4.04H21.096C20.616 4.04 20.12 4.04 19.608 4.04C19.096 4.04 18.616 4.056 18.168 4.088L5.448 4.952V15.656L15.48 15.032C16.216 14.968 16.984 14.888 17.784 14.792C18.616 14.696 19.176 14.648 19.464 14.648C19.912 14.648 20.296 14.936 20.616 15.512C20.936 16.056 21.096 16.568 21.096 17.048C21.096 17.592 20.888 17.864 20.472 17.864H18.456ZM75.456 25.592V26.072C75.456 28.152 75.984 29.832 77.04 31.112C78.128 32.392 79.472 33.032 81.072 33.032C83.12 33.032 84.992 32.712 86.688 32.072C88.416 31.4 89.92 30.376 91.2 29C91.424 28.744 91.632 28.568 91.824 28.472C92.016 28.344 92.176 28.28 92.304 28.28C92.624 28.28 92.784 28.472 92.784 28.856C92.784 29.144 92.544 29.656 92.064 30.392C91.616 31.128 90.912 31.928 89.952 32.792C88.992 33.624 87.776 34.344 86.304 34.952C84.832 35.56 83.088 35.864 81.072 35.864C79.44 35.864 77.952 35.464 76.608 34.664C75.296 33.832 74.256 32.648 73.488 31.112C72.72 29.576 72.336 27.752 72.336 25.64V24.968C72.048 24.744 71.808 24.488 71.616 24.2C71.424 23.912 71.328 23.656 71.328 23.432C71.328 23.016 71.632 22.808 72.24 22.808C72.272 22.808 72.336 22.808 72.432 22.808C72.56 22.776 72.64 22.76 72.672 22.76C72.896 21.608 73.344 20.392 74.016 19.112C74.72 17.832 75.6 16.632 76.656 15.512C77.712 14.36 78.912 13.432 80.256 12.728C81.632 12.024 83.104 11.672 84.672 11.672C86.656 11.672 88.224 12.024 89.376 12.728C90.56 13.4 91.392 14.28 91.872 15.368C92.384 16.424 92.64 17.528 92.64 18.68C92.64 19.768 92.544 20.632 92.352 21.272C92.192 21.912 91.792 22.44 91.152 22.856C90.512 23.24 89.472 23.656 88.032 24.104C86.592 24.552 84.864 24.92 82.848 25.208C80.864 25.464 78.608 25.592 76.08 25.592H75.456ZM76.8 22.904C79.168 22.904 81.152 22.776 82.752 22.52C84.352 22.232 85.68 21.944 86.736 21.656C87.888 21.304 88.624 20.92 88.944 20.504C89.296 20.088 89.472 19.464 89.472 18.632C89.472 15.848 87.856 14.456 84.624 14.456C83.44 14.456 82.352 14.728 81.36 15.272C80.368 15.816 79.488 16.52 78.72 17.384C77.984 18.248 77.36 19.176 76.848 20.168C76.368 21.128 76.032 22.04 75.84 22.904H76.8ZM146.207 14.648H145.967C145.263 14.648 144.719 14.68 144.335 14.744C143.951 14.776 143.519 14.808 143.039 14.84H142.991C142.575 14.84 142.223 14.6 141.935 14.12C141.647 13.64 141.503 13.192 141.503 12.776C141.503 12.328 141.679 12.104 142.031 12.104H146.207V9.656C146.207 9.336 146.191 8.84 146.159 8.168C146.159 7.496 146.143 6.808 146.111 6.104C146.111 5.4 146.111 4.872 146.111 4.52C146.111 4.36 146.207 4.248 146.399 4.184C146.591 4.088 146.815 4.04 147.071 4.04C147.583 4.04 148.127 4.168 148.703 4.424C149.279 4.648 149.567 4.968 149.567 5.384C149.567 5.64 149.551 6.04 149.519 6.584C149.519 7.096 149.503 7.64 149.471 8.216C149.471 8.792 149.471 9.272 149.471 9.656V11.96L150.815 11.912C151.391 11.88 152.063 11.832 152.831 11.768C153.599 11.704 154.143 11.656 154.463 11.624H154.511C154.927 11.624 155.279 11.864 155.567 12.344C155.887 12.824 156.047 13.272 156.047 13.688C156.047 14.168 155.855 14.408 155.471 14.408C155.151 14.408 154.543 14.408 153.647 14.408C152.751 14.408 151.983 14.424 151.343 14.456L149.471 14.504V29.816C149.471 31.096 149.583 31.912 149.807 32.264C150.031 32.616 150.495 32.792 151.199 32.792C151.743 32.792 152.415 32.616 153.215 32.264C154.047 31.912 154.863 31.432 155.663 30.824C156.207 30.408 156.639 30.2 156.959 30.2C157.279 30.2 157.439 30.376 157.439 30.728C157.439 31.016 157.231 31.448 156.815 32.024C156.431 32.568 155.903 33.144 155.231 33.752C154.591 34.328 153.871 34.824 153.071 35.24C152.303 35.656 151.535 35.864 150.767 35.864C149.103 35.864 147.919 35.352 147.215 34.328C146.543 33.304 146.207 31.768 146.207 29.72V14.648ZM226.767 28.136C226.767 28.328 226.543 28.84 226.095 29.672C225.647 30.472 224.959 31.352 224.031 32.312C223.103 33.272 221.919 34.104 220.479 34.808C219.071 35.512 217.391 35.864 215.439 35.864C213.775 35.864 212.223 35.48 210.783 34.712C209.375 33.912 208.239 32.76 207.375 31.256C206.543 29.72 206.127 27.864 206.127 25.688C206.127 23.768 206.479 21.96 207.183 20.264C207.919 18.568 208.879 17.08 210.063 15.8C211.247 14.52 212.575 13.512 214.047 12.776C215.519 12.04 216.991 11.672 218.463 11.672C219.775 11.672 220.879 11.864 221.775 12.248C222.671 12.6 223.375 13.032 223.887 13.544C224.431 14.056 224.815 14.536 225.039 14.984C225.295 15.4 225.423 15.656 225.423 15.752C225.423 16.264 225.183 16.76 224.703 17.24C224.223 17.72 223.791 17.96 223.407 17.96C223.215 17.96 223.071 17.88 222.975 17.72C222.751 17.272 222.527 16.84 222.303 16.424C222.079 16.008 221.791 15.688 221.439 15.464C220.511 14.824 219.551 14.504 218.559 14.504C217.567 14.504 216.527 14.792 215.439 15.368C214.383 15.944 213.391 16.744 212.463 17.768C211.567 18.76 210.831 19.912 210.255 21.224C209.679 22.536 209.391 23.944 209.391 25.448C209.391 27.112 209.695 28.52 210.303 29.672C210.943 30.792 211.727 31.64 212.655 32.216C213.583 32.792 214.511 33.08 215.439 33.08C216.815 33.08 218.095 32.84 219.279 32.36C220.463 31.88 221.551 31.272 222.543 30.536C223.567 29.768 224.447 29.016 225.183 28.28C225.663 27.8 226.047 27.56 226.335 27.56C226.623 27.56 226.767 27.752 226.767 28.136ZM294.797 34.184C294.829 33.928 294.845 33.496 294.845 32.888C294.845 32.28 294.845 31.656 294.845 31.016C294.877 30.344 294.893 29.832 294.893 29.48V20.936C294.893 19.048 294.637 17.544 294.125 16.424C293.613 15.272 292.557 14.696 290.957 14.696C289.869 14.696 288.765 14.904 287.645 15.32C286.557 15.736 285.565 16.424 284.669 17.384C283.773 18.344 283.085 19.624 282.605 21.224C282.381 22.024 282.205 22.968 282.077 24.056C281.981 25.112 281.917 26.168 281.885 27.224C281.885 28.28 281.869 29.192 281.837 29.96V30.728C281.837 31.496 281.853 32.248 281.885 32.984C281.917 33.72 281.949 34.408 281.981 35.048C281.981 35.368 281.677 35.528 281.069 35.528C280.557 35.528 280.013 35.4 279.437 35.144C278.861 34.92 278.573 34.6 278.573 34.184C278.573 33.928 278.573 33.464 278.573 32.792C278.605 32.12 278.621 31.464 278.621 30.824C278.653 30.152 278.669 29.704 278.669 29.48V6.68C278.669 6.36 278.653 5.864 278.621 5.192C278.589 4.52 278.557 3.832 278.525 3.128C278.525 2.424 278.525 1.896 278.525 1.544C278.525 1.224 278.829 1.064 279.437 1.064C279.949 1.064 280.493 1.192 281.069 1.448C281.645 1.672 281.933 1.992 281.933 2.408C281.933 2.664 281.917 3.096 281.885 3.704C281.885 4.312 281.869 4.952 281.837 5.624C281.837 6.264 281.837 6.776 281.837 7.16V16.952C282.861 15.256 284.189 13.96 285.821 13.064C287.485 12.168 289.197 11.72 290.957 11.72C292.493 11.72 293.725 12.008 294.653 12.584C295.613 13.128 296.333 13.848 296.813 14.744C297.325 15.64 297.661 16.616 297.821 17.672C297.981 18.728 298.061 19.752 298.061 20.744V29.96C298.061 30.152 298.077 30.584 298.109 31.256C298.141 31.928 298.157 32.632 298.157 33.368C298.189 34.104 298.205 34.664 298.205 35.048C298.205 35.368 297.901 35.528 297.293 35.528C296.781 35.528 296.237 35.4 295.661 35.144C295.085 34.92 294.797 34.616 294.797 34.232V34.184Z" fill="black"/>
</svg>
