<svg width="188" height="191" viewBox="0 0 188 191" fill="none" xmlns="http://www.w3.org/2000/svg">
<path d="M89.8962 19.319C81.7961 18.9588 71.397 29.5074 69.184 55.7017C69.0497 57.2734 71.0962 58.916 73.0031 60.3076C74.448 61.3662 75.1839 61.781 77.499 63.3799C79.8731 65.0225 81.1838 65.8629 82.908 66.7361C84.4496 67.5164 85.8784 68.1822 87.2642 68.6133C89.1926 69.2191 90.847 69.4646 93.4091 69.6447C94.795 69.743 95.9659 69.9994 97.7869 70.0868C100.134 70.2013 101.746 69.8521 102.363 69.6884C103.481 69.3937 106.327 69.8739 107.536 68.4714C108.052 67.8712 108.224 67.7948 108.546 66.4523C109.4 62.8888 108.562 58.1029 108.492 57.7209C107.332 51.4997 105.785 46.1572 105.785 46.1572C100.252 30.7899 95.9498 19.5864 89.8962 19.319Z" fill="#D9D9D9"/>
<path d="M94.4942 18.2268C93.7207 17.1081 98.5012 15.471 110.093 17.6593C111.898 18.3305 112.87 18.4015 113.874 18.7125C116.082 19.3892 117.307 19.6402 119.246 20.246C120.089 20.5079 119.971 20.7207 122.904 21.6212C125.788 22.4998 126.519 23.0728 128.313 23.8422C129.876 24.5135 130.585 24.8191 131.417 25.2993C133.056 26.2434 133.958 26.6854 134.205 26.9146C135.21 27.8641 136.048 28.6391 136.155 28.8137C137.165 30.4508 137.96 31.2257 138.024 31.5204C138.368 33.1139 149.084 35.1985 160.224 38.2327C163.184 39.6843 163.845 41.4961 163.925 42.1946C163.957 42.462 164.274 43.3733 164.205 44.0555C164.054 45.4361 164.081 46.8987 163.968 47.9355C163.737 50.0911 163.195 52.6396 162.813 53.9602C162.41 55.3463 161.492 57.6874 159.827 60.4269C159.021 61.7585 157.898 62.6971 156.964 63.8649C155.471 65.7258 154.364 66.2279 153.344 67.2211C152.436 67.9469 150.862 69.1911 149.245 70.2934C147.102 71.7559 146.022 72.3562 144.631 72.9183C142.015 73.9825 144.191 73.1584 141.371 74.2499C140.543 74.5718 138.911 75.0521 137.75 75.3795C137.084 75.565 135.494 76.138 134.248 76.3891C132.228 76.7929 132.132 76.5637 131.063 76.8311C130.096 77.0712 129.801 77.0548 129.032 77.3168C126.836 78.0644 126.492 78.6592 126.169 78.9757C125.665 79.4669 125.256 79.7561 125.095 80.1054C124.789 80.4765 124.655 80.4819 124.381 81.5624C124.107 82.6211 124.134 83.7944 124.22 84.2692C123.876 89.6608 123.887 94.927 123.543 100.319C122.189 100.428 118.515 100.684 116.141 99.7129C115.378 99.4018 114.626 99.0908 113.831 98.4195C112.15 96.9952 111.876 94.7414 111.205 92.1111C110.42 89.0223 110.426 87.6744 109.373 85.5243C108.54 83.8162 107.853 83.5925 107.423 83.2596C106.032 82.1845 104.614 82.5447 104.039 82.572C102.25 82.6539 101.493 83.4069 100.704 83.8271C100.129 84.1327 98.9578 84.6293 97.2712 86.8613C95.5416 89.1479 95.0689 90.8123 94.2471 93.0061C93.6347 94.6487 93.2587 96.7278 92.7377 100.242C92.0663 104.744 93.2372 107.719 91.7816 109.623C90.8845 110.796 90.1326 110.567 88.0431 112.373C86.9043 113.356 86.3135 113.525 84.5839 115.648C82.2258 118.545 81.9357 118.802 81.0817 120.177C80.1847 121.618 79.1587 122.687 77.8212 125.471C76.9457 126.529 76.0003 128.783 75.157 131.168C74.0451 134.306 73.6315 137.427 73.2072 139.899C72.3477 144.887 72.4498 146.41 71.7354 146.972C71.0747 147.49 69.8662 146.164 65.569 142.568C63.4204 140.467 61.2343 138.284 59.0857 136.183C56.8995 133.274 54.622 131.015 53.3974 129.351C50.674 125.651 50.3464 125.64 47.231 121.061C44.3358 116.805 42.6921 115.746 42.9338 113.541C43.0466 112.488 43.2024 109.809 45.9203 107.276C49.7555 103.702 51.5281 102.25 53.8754 100.122C57.1627 97.148 59.3328 93.6991 61.1161 91.3525C64.0811 87.4507 65.5529 83.2541 67.3631 76.7983C67.7068 75.5705 68.0023 63.4174 69.2753 62.326C70.5268 61.2509 73.9753 64.6344 83.5203 69.1583C86.4639 70.5554 87.9356 71.2539 89.488 71.5813C90.906 71.8815 98.9202 74.7956 105.602 72.7328C112.37 70.6427 112.236 64.9345 111.989 62.3642C111.704 59.4228 110.388 52.8797 109.781 50.2985C107.649 41.2778 104.721 36.7757 103.013 33.2012C97.8674 22.467 95.6866 19.9567 94.4942 18.2268Z" fill="#D9D9D9"/>
<path d="M117.683 32.3174C118.913 32.3229 120.54 33.709 120.632 35.4389C120.707 36.8796 119.117 38.3148 117.828 38.3093C116.474 38.3093 114.723 36.7868 114.734 35.4389C114.739 33.9163 116.173 32.3119 117.683 32.3174Z" fill="#131313"/>
<path d="M105.237 87.0252C105.522 87.0307 106.37 87.0525 106.907 87.6746C107.138 87.9366 107.224 88.2094 107.305 88.4823C107.531 89.2244 107.466 89.148 107.627 89.8084C107.745 90.294 107.907 91.4346 108.078 92.4441C108.078 92.4441 108.293 94.1086 109.035 96.0022C109.803 97.9668 111.199 100.854 114.186 103.964C114.841 103.871 115.851 103.991 117.011 104.084C118.424 104.199 119.203 104.499 120.83 104.974C124.51 106.043 124.601 105.678 126.481 106.431C127.926 107.004 128.839 107.604 130.381 108.614C133.566 110.698 135.156 111.741 136.187 113.705C136.526 114.349 136.891 115.561 137.621 117.989C138.411 120.619 138.212 120.461 138.577 121.302C139.158 122.644 139.684 123.108 142.235 126.235C144.019 128.418 143.675 128.085 144.701 129.307C145.807 130.622 147.687 132.68 149.395 134.399C148.654 136.391 148.031 137.547 147.365 138.764C146.044 141.182 145.507 141.558 144.658 142.846C144.405 143.234 143.288 144.674 142.987 144.909C142.525 145.46 141.129 146.568 139.926 147.081C139.093 147.436 138.244 147.687 136.74 147.823C134.372 148.042 134.312 147.965 133.082 148.265C132.261 148.467 132.486 148.522 130.176 149.395C128.549 150.012 128.323 150.235 126.954 150.808C124.574 151.807 124.896 151.409 123.092 152.14C120.922 153.024 120.443 153.078 118.714 153.957C117.763 154.443 116.759 155.048 116.297 155.37C116.324 157.39 116.34 158.803 116.367 160.828C113.649 160.778 111.35 160.642 109.604 160.506C107.396 160.331 105.903 160.211 103.873 159.856C101.783 159.496 100.274 159.087 98.6194 158.645C95.6866 157.853 93.4628 157.079 92.1736 156.626C90.4064 156.004 90.7502 156.069 88.0376 155.092C85.4969 154.175 84.8685 154.001 83.5042 153.395C82.0539 152.751 80.9903 152.162 80.1631 151.698C78.917 150.999 77.515 150.148 76.0271 149.111C75.8069 145.93 76.1507 143.381 76.5052 141.673C76.8973 139.779 77.1122 138.137 77.4774 136.865C78.1059 134.699 78.4604 133.274 79.5669 130.879C82.4406 124.652 82.5749 125.847 83.429 124.368C85.5131 120.761 88.0699 118.327 89.8747 116.608C90.2936 116.205 90.7233 115.817 94.9668 111.839C95.0849 111.73 95.3857 110.917 95.5039 110.807C95.187 108.384 95.7188 106.365 95.8423 104.805C95.9927 102.927 96.4385 100.521 97.0777 97.5084C97.5558 95.2437 98.2111 93.8685 98.7268 92.9408C99.2908 91.9257 99.8924 90.9871 100.703 89.9284C101.509 88.8752 102.395 88.2203 103.002 87.8274C103.62 87.4345 104.302 87.0034 105.237 87.0252Z" fill="#D9D9D9"/>
<path d="M126.288 118.873C127.518 118.879 129.145 120.265 129.237 121.995C129.312 123.435 127.722 124.87 126.433 124.865C125.079 124.865 123.328 123.342 123.339 121.995C123.344 120.477 124.778 118.868 126.288 118.873Z" fill="#131313"/>
</svg>
