<svg width="36" height="32" viewBox="0 0 36 32" fill="none" xmlns="http://www.w3.org/2000/svg">
<path d="M35.0526 0H0.947368C0.426316 0 0 0.436264 0 0.969476V24.2369C0 24.7701 0.426316 25.2064 0.947368 25.2064H8.52632V31.0232C8.52632 31.8958 9.52105 32.332 10.1368 31.7019L16.5789 25.2064H35.0526C35.5737 25.2064 36 24.7701 36 24.2369V0.969476C36 0.436264 35.5737 0 35.0526 0ZM34.1053 23.2674H16.2C15.9632 23.2674 15.7263 23.3644 15.5368 23.5583L10.4211 28.6965V24.2369C10.4211 23.7037 9.99474 23.2674 9.47368 23.2674H1.89474V1.93895H34.1053V23.2674Z" fill="black"/>
</svg>
