<svg width="38" height="32" viewBox="0 0 38 32" fill="none" xmlns="http://www.w3.org/2000/svg">
<path d="M38 12.6663C38 13.5893 37.7214 14.4915 37.1995 15.2589C36.6775 16.0263 35.9357 16.6244 35.0677 16.9776C34.1998 17.3308 33.2447 17.4233 32.3233 17.2432C31.4019 17.0631 30.5555 16.6187 29.8912 15.9661C29.2269 15.3134 28.7746 14.4819 28.5913 13.5767C28.408 12.6715 28.5021 11.7332 28.8616 10.8805C29.2211 10.0278 29.8299 9.29901 30.611 8.78624C31.3922 8.27347 32.3105 7.99979 33.25 7.99979C34.5093 8.00117 35.7167 8.49327 36.6072 9.36812C37.4977 10.243 37.9986 11.4291 38 12.6663ZM9.5 12.6663C9.5 11.7434 9.22142 10.8411 8.69948 10.0737C8.17755 9.30633 7.4357 8.7082 6.56775 8.355C5.6998 8.00181 4.74473 7.90939 3.82332 8.08945C2.90191 8.26951 2.05554 8.71396 1.39124 9.36658C0.726946 10.0192 0.274552 10.8507 0.091272 11.7559C-0.0920077 12.6611 0.0020581 13.5994 0.361574 14.4521C0.721091 15.3048 1.32991 16.0336 2.11104 16.5464C2.89218 17.0592 3.81054 17.3329 4.75 17.3329C6.00935 17.3315 7.21671 16.8394 8.1072 15.9645C8.99769 15.0897 9.49859 13.9035 9.5 12.6663ZM12.8929 9.33308C13.8323 9.33308 14.7507 9.05939 15.5318 8.54663C16.313 8.03386 16.9218 7.30505 17.2813 6.45235C17.6408 5.59965 17.7349 4.66137 17.5516 3.75615C17.3683 2.85093 16.9159 2.01943 16.2516 1.3668C15.5873 0.714173 14.7409 0.269728 13.8195 0.0896684C12.8981 -0.0903911 11.9431 0.00202193 11.0751 0.355221C10.2072 0.708421 9.46531 1.30654 8.94338 2.07395C8.42144 2.84136 8.14286 3.74359 8.14286 4.66654C8.14427 5.90376 8.64517 7.08991 9.53566 7.96475C10.4262 8.8396 11.6335 9.33169 12.8929 9.33308ZM25.1071 9.33308C26.0466 9.33308 26.965 9.05939 27.7461 8.54663C28.5272 8.03386 29.1361 7.30505 29.4956 6.45235C29.8551 5.59965 29.9492 4.66137 29.7659 3.75615C29.5826 2.85093 29.1302 2.01943 28.4659 1.3668C27.8016 0.714173 26.9552 0.269728 26.0338 0.0896684C25.1124 -0.0903911 24.1573 0.00202193 23.2894 0.355221C22.4214 0.708421 21.6796 1.30654 21.1577 2.07395C20.6357 2.84136 20.3571 3.74359 20.3571 4.66654C20.3586 5.90376 20.8595 7.08991 21.7499 7.96475C22.6404 8.8396 23.8478 9.33169 25.1071 9.33308ZM29.0245 19.4736C27.635 18.7182 26.6075 17.452 26.1674 15.953C25.7164 14.4283 24.7739 13.0886 23.4814 12.1353C22.189 11.1819 20.6165 10.6665 19.0003 10.6664C17.3841 10.6663 15.8115 11.1816 14.519 12.1348C13.2264 13.088 12.2837 14.4276 11.8326 15.9523C11.3944 17.4494 10.3694 18.7144 8.98263 19.4697C7.45117 20.2853 6.29758 21.6482 5.76065 23.2763C5.22372 24.9044 5.34456 26.673 6.09815 28.2159C6.85175 29.7589 8.1804 30.9581 9.80907 31.5653C11.4377 32.1726 13.2417 32.1413 14.8476 31.478C17.5015 30.4004 20.4816 30.3982 23.1372 31.4718C24.7422 32.1398 26.5472 32.1755 28.1782 31.5715C29.8093 30.9676 31.1413 29.7703 31.8982 28.2277C32.6551 26.6852 32.7788 24.9157 32.2438 23.2859C31.7089 21.6562 30.5561 20.2911 29.0245 19.4736Z" fill="#131313"/>
</svg>
