<svg width="29" height="17" viewBox="0 0 29 17" fill="none" xmlns="http://www.w3.org/2000/svg">
<path d="M0.784997 0.869821C1.86769 -0.245824 3.37415 -0.333234 4.6972 0.869821L14.3974 10.237L24.0972 0.869821C25.4206 -0.333234 26.9298 -0.245824 28.0034 0.869821C28.5087 1.4189 28.7895 2.13997 28.7895 2.88865C28.7895 3.63734 28.5087 4.3584 28.0034 4.90749C26.9952 5.95282 16.3503 16.1624 16.3503 16.1624C16.097 16.4273 15.7933 16.638 15.4573 16.7819C15.1213 16.9258 14.76 17 14.3949 17C14.0298 17 13.6684 16.9258 13.3324 16.7819C12.9965 16.638 12.6927 16.4273 12.4395 16.1624C12.4395 16.1624 1.79952 5.95282 0.78664 4.90749C0.280989 4.35858 0 3.63745 0 2.88865C0 2.13985 0.280989 1.41872 0.78664 0.869821H0.784997Z" fill="#FF0000"/>
</svg>
