<svg width="26" height="32" viewBox="0 0 26 32" fill="none" xmlns="http://www.w3.org/2000/svg">
<path d="M20.4286 0H5.57143C2.49576 0.00292976 0.00340061 2.15019 0 4.79999V31.1999C0.000226757 31.3393 0.0427334 31.4763 0.123213 31.5972C0.378819 31.9811 0.947274 32.1138 1.39286 31.8937L13 26.1343L24.6071 31.8937C24.7487 31.9629 24.9087 31.9996 25.0714 31.9999C25.5839 31.9992 25.9991 31.6415 26 31.1999V4.79999C25.9966 2.15019 23.5042 0.00292976 20.4286 0ZM24.1429 29.8156L13.4643 24.5171C13.3227 24.4479 13.1628 24.4113 13 24.4109C12.8372 24.4113 12.6773 24.4479 12.5357 24.5171L1.85714 29.8156V4.79999C1.85975 3.03359 3.52114 1.60224 5.57143 1.6H20.4286C22.4789 1.60224 24.1402 3.03359 24.1429 4.79999V29.8156Z" fill="black"/>
<path d="M4.5 1.5H21L22.5 2L23.5 3L24 4V5V30L13 24.5L1.5 30V4L2 3L3 2L4.5 1.5Z" fill="#B82929" stroke="black"/>
</svg>
